#tb 0: 1/25
#media_type 0: video
#codec_id 0: rawvideo
#dimensions 0: 416x240
#sar 0: 0/1
0,          0,          0,        1,   149760, 0xc4f239e0
0,          1,          1,        1,   149760, 0xf57a2e44
0,          2,          2,        1,   149760, 0xbf1e9995
0,          3,          3,        1,   149760, 0x5fa25087
0,          4,          4,        1,   149760, 0x709b4c3f
0,          5,          5,        1,   149760, 0x63abbd5c
0,          6,          6,        1,   149760, 0xbd87092a
0,          7,          7,        1,   149760, 0x59156f4a
0,          8,          8,        1,   149760, 0xf8ed7d88
0,          9,          9,        1,   149760, 0xdac1cecf
0,         10,         10,        1,   149760, 0x7ba3b408
0,         11,         11,        1,   149760, 0xad4bd5f5
0,         12,         12,        1,   149760, 0x4b1f83c6
0,         13,         13,        1,   149760, 0x7329797f
0,         14,         14,        1,   149760, 0x1d201f16
0,         15,         15,        1,   149760, 0xde263a30
